<?xml version="1.0" encoding="UTF-8" standalone="no"?>
<!-- Created with Inkscape (http://www.inkscape.org/) -->

<svg
   width="1023.9999"
   height="1023.9999"
   viewBox="0 0 270.93331 270.93331"
   version="1.1"
   id="svg1"
   xml:space="preserve"
   xmlns="http://www.w3.org/2000/svg"
   xmlns:svg="http://www.w3.org/2000/svg"><defs
     id="defs1" /><g
     id="layer1"
     style="display:inline"><g
       id="g11"
       transform="matrix(1.0684974,0,0,1.0684974,-8.5135164,-10.970512)"
       style="display:none;fill:#ffffff;fill-opacity:1"><path
         style="fill:#ffffff;fill-opacity:1;stroke-width:2.1"
         d="m 134.85805,140.66119 0.0207,45.00898 a 1.5688312,1.5688312 150.64461 0 1 -2.38423,1.341 l -15.43832,-9.39238 a 2.311354,2.311354 60.657768 0 1 -1.11003,-1.97463 l 0,-20.48604 a 3.7085472,3.7085472 59.630381 0 0 -1.89586,-3.23535 L 49.226494,115.60371 a 0.75959449,0.75959449 149.46787 0 0 -1.130861,0.66698 l 0.388307,68.44994 a 4.319605,4.319605 60.235014 0 0 2.108033,3.68605 l 64.376217,38.3684 a 0.83412477,0.83412477 150.00393 0 0 1.26109,-0.72798 l -0.28632,-20.83905 a 1.0427074,1.0427074 150.15023 0 1 1.58101,-0.90728 l 15.46242,9.32299 a 3.8928557,3.8928557 60.543825 0 1 1.88278,3.33375 l 0,43.3432 a 1.8815816,1.8815816 151.03449 0 1 -2.88059,1.59447 L 30.332917,198.20338 A 4.973599,4.973599 61.034489 0 1 28,193.9887 V 82.0175 a 1.7126343,1.7126343 149.04629 0 1 2.51911,-1.510865 l 100.40128,53.592605 a 7.4421467,7.4421467 59.033138 0 1 3.93766,6.56195 z"
         id="path9" /><path
         style="fill:#ffffff;fill-opacity:1;stroke:none;stroke-width:2.1"
         d="m 137,140.68284 v 15.31056 a 1.2451648,1.2451648 30.766405 0 0 1.83868,1.09461 l 76.13604,-41.28206 a 0.46094049,0.46094049 46.874596 0 1 0.60968,0.65094 L 137.51568,240.34935 A 3.3494297,3.3494297 106.10819 0 0 137,242.13499 v 18.20971 a 1.8448583,1.8448583 28.803463 0 0 2.83319,1.55778 l 100.22657,-63.58872 a 3.0844954,3.0844954 118.66544 0 0 1.43202,-2.61939 l -0.0842,-17.48804 a 0.85452815,0.85452815 29.39414 0 0 -1.29381,-0.72885 l -68.61855,41.12541 a 0.4300045,0.4300045 45.319677 0 1 -0.5874,-0.59399 l 69.67334,-113.36307 a 6.2069914,6.2069914 105.78791 0 0 0.91891,-3.24998 l 2.8e-4,-19.803097 a 1.4424974,1.4424974 30.686958 0 0 -2.13361,-1.266184 L 140.93397,134.05373 A 7.5523121,7.5523121 120.68656 0 0 137,140.68284 Z"
         id="path10" /><path
         style="fill:#ffffff;fill-opacity:1;stroke:none;stroke-width:2.1"
         d="M 30.889871,73.826096 132.26281,12.933764 a 7.1730543,7.1730543 0.297774 0 1 7.45084,0.03872 l 99.39439,61.118644 a 1.6316958,1.6316958 91.427427 0 1 -0.0703,2.820726 L 138.50884,132.02497 a 5.280108,5.280108 179.71897 0 1 -5.03105,0.0247 L 30.971812,77.153501 a 1.9136426,1.9136426 88.589313 0 1 -0.08194,-3.327405 z"
         id="path11" /></g><g
       id="g6"
       transform="matrix(1.0684974,0,0,1.0684974,-8.5135164,-10.970512)"
       style="display:inline"><path
         style="fill:#076cd9;fill-opacity:1;stroke-width:2.1"
         d="m 134.85805,140.66119 0.0207,45.00898 a 1.5688312,1.5688312 150.64461 0 1 -2.38423,1.341 l -15.43832,-9.39238 a 2.311354,2.311354 60.657768 0 1 -1.11003,-1.97463 l 0,-20.48604 a 3.7085472,3.7085472 59.630381 0 0 -1.89586,-3.23535 L 49.226494,115.60371 a 0.75959449,0.75959449 149.46787 0 0 -1.130861,0.66698 l 0.388307,68.44994 a 4.319605,4.319605 60.235014 0 0 2.108033,3.68605 l 64.376217,38.3684 a 0.83412477,0.83412477 150.00393 0 0 1.26109,-0.72798 l -0.28632,-20.83905 a 1.0427074,1.0427074 150.15023 0 1 1.58101,-0.90728 l 15.46242,9.32299 a 3.8928557,3.8928557 60.543825 0 1 1.88278,3.33375 l 0,43.3432 a 1.8815816,1.8815816 151.03449 0 1 -2.88059,1.59447 L 30.332917,198.20338 A 4.973599,4.973599 61.034489 0 1 28,193.9887 V 82.0175 a 1.7126343,1.7126343 149.04629 0 1 2.51911,-1.510865 l 100.40128,53.592605 a 7.4421467,7.4421467 59.033138 0 1 3.93766,6.56195 z"
         id="path1" /><path
         style="fill:#d91507;fill-opacity:1;stroke:none;stroke-width:2.1"
         d="m 137,140.68284 v 15.31056 a 1.2451648,1.2451648 30.766405 0 0 1.83868,1.09461 l 76.13604,-41.28206 a 0.46094049,0.46094049 46.874596 0 1 0.60968,0.65094 L 137.51568,240.34935 A 3.3494297,3.3494297 106.10819 0 0 137,242.13499 v 18.20971 a 1.8448583,1.8448583 28.803463 0 0 2.83319,1.55778 l 100.22657,-63.58872 a 3.0844954,3.0844954 118.66544 0 0 1.43202,-2.61939 l -0.0842,-17.48804 a 0.85452815,0.85452815 29.39414 0 0 -1.29381,-0.72885 l -68.61855,41.12541 a 0.4300045,0.4300045 45.319677 0 1 -0.5874,-0.59399 l 69.67334,-113.36307 a 6.2069914,6.2069914 105.78791 0 0 0.91891,-3.24998 l 2.8e-4,-19.803097 a 1.4424974,1.4424974 30.686958 0 0 -2.13361,-1.266184 L 140.93397,134.05373 A 7.5523121,7.5523121 120.68656 0 0 137,140.68284 Z"
         id="path5" /><path
         style="fill:#bed907;fill-opacity:1;stroke:none;stroke-width:2.1"
         d="M 30.889871,73.826096 132.26281,12.933764 a 7.1730543,7.1730543 0.297774 0 1 7.45084,0.03872 l 99.39439,61.118644 a 1.6316958,1.6316958 91.427427 0 1 -0.0703,2.820726 L 138.50884,132.02497 a 5.280108,5.280108 179.71897 0 1 -5.03105,0.0247 L 30.971812,77.153501 a 1.9136426,1.9136426 88.589313 0 1 -0.08194,-3.327405 z"
         id="path6" /></g><g
       id="g24"
       transform="matrix(1.0684974,0,0,1.0684974,-8.5135164,-10.970512)"
       style="display:none;fill:#000000;fill-opacity:1"><path
         style="fill:#000000;fill-opacity:1;stroke-width:2.1"
         d="m 134.85805,140.66119 0.0207,45.00898 a 1.5688312,1.5688312 150.64461 0 1 -2.38423,1.341 l -15.43832,-9.39238 a 2.311354,2.311354 60.657768 0 1 -1.11003,-1.97463 l 0,-20.48604 a 3.7085472,3.7085472 59.630381 0 0 -1.89586,-3.23535 L 49.226494,115.60371 a 0.75959449,0.75959449 149.46787 0 0 -1.130861,0.66698 l 0.388307,68.44994 a 4.319605,4.319605 60.235014 0 0 2.108033,3.68605 l 64.376217,38.3684 a 0.83412477,0.83412477 150.00393 0 0 1.26109,-0.72798 l -0.28632,-20.83905 a 1.0427074,1.0427074 150.15023 0 1 1.58101,-0.90728 l 15.46242,9.32299 a 3.8928557,3.8928557 60.543825 0 1 1.88278,3.33375 l 0,43.3432 a 1.8815816,1.8815816 151.03449 0 1 -2.88059,1.59447 L 30.332917,198.20338 A 4.973599,4.973599 61.034489 0 1 28,193.9887 V 82.0175 a 1.7126343,1.7126343 149.04629 0 1 2.51911,-1.510865 l 100.40128,53.592605 a 7.4421467,7.4421467 59.033138 0 1 3.93766,6.56195 z"
         id="path22" /><path
         style="fill:#000000;fill-opacity:1;stroke:none;stroke-width:2.1"
         d="m 137,140.68284 v 15.31056 a 1.2451648,1.2451648 30.766405 0 0 1.83868,1.09461 l 76.13604,-41.28206 a 0.46094049,0.46094049 46.874596 0 1 0.60968,0.65094 L 137.51568,240.34935 A 3.3494297,3.3494297 106.10819 0 0 137,242.13499 v 18.20971 a 1.8448583,1.8448583 28.803463 0 0 2.83319,1.55778 l 100.22657,-63.58872 a 3.0844954,3.0844954 118.66544 0 0 1.43202,-2.61939 l -0.0842,-17.48804 a 0.85452815,0.85452815 29.39414 0 0 -1.29381,-0.72885 l -68.61855,41.12541 a 0.4300045,0.4300045 45.319677 0 1 -0.5874,-0.59399 l 69.67334,-113.36307 a 6.2069914,6.2069914 105.78791 0 0 0.91891,-3.24998 l 2.8e-4,-19.803097 a 1.4424974,1.4424974 30.686958 0 0 -2.13361,-1.266184 L 140.93397,134.05373 A 7.5523121,7.5523121 120.68656 0 0 137,140.68284 Z"
         id="path23" /><path
         style="fill:#000000;fill-opacity:1;stroke:none;stroke-width:2.1"
         d="M 30.889871,73.826096 132.26281,12.933764 a 7.1730543,7.1730543 0.297774 0 1 7.45084,0.03872 l 99.39439,61.118644 a 1.6316958,1.6316958 91.427427 0 1 -0.0703,2.820726 L 138.50884,132.02497 a 5.280108,5.280108 179.71897 0 1 -5.03105,0.0247 L 30.971812,77.153501 a 1.9136426,1.9136426 88.589313 0 1 -0.08194,-3.327405 z"
         id="path24" /></g><g
       id="g31"
       transform="matrix(1.0684974,0,0,1.0684974,-8.5135164,-10.970512)"
       style="display:none"><path
         style="fill:#076bda;fill-opacity:1;stroke-width:2.1"
         d="m 134.85805,140.66119 0.0207,45.00898 a 1.5688312,1.5688312 150.64461 0 1 -2.38423,1.341 l -15.43832,-9.39238 a 2.311354,2.311354 60.657768 0 1 -1.11003,-1.97463 l 0,-20.48604 a 3.7085472,3.7085472 59.630381 0 0 -1.89586,-3.23535 L 49.226494,115.60371 a 0.75959449,0.75959449 149.46787 0 0 -1.130861,0.66698 l 0.388307,68.44994 a 4.319605,4.319605 60.235014 0 0 2.108033,3.68605 l 64.376217,38.3684 a 0.83412477,0.83412477 150.00393 0 0 1.26109,-0.72798 l -0.28632,-20.83905 a 1.0427074,1.0427074 150.15023 0 1 1.58101,-0.90728 l 15.46242,9.32299 a 3.8928557,3.8928557 60.543825 0 1 1.88278,3.33375 l 0,43.3432 a 1.8815816,1.8815816 151.03449 0 1 -2.88059,1.59447 L 30.332917,198.20338 A 4.973599,4.973599 61.034489 0 1 28,193.9887 V 82.0175 a 1.7126343,1.7126343 149.04629 0 1 2.51911,-1.510865 l 100.40128,53.592605 a 7.4421467,7.4421467 59.033138 0 1 3.93766,6.56195 z"
         id="path29" /><path
         style="fill:#0358ab;fill-opacity:1;stroke:none;stroke-width:2.1"
         d="m 137,140.68284 v 15.31056 a 1.2451648,1.2451648 30.766405 0 0 1.83868,1.09461 l 76.13604,-41.28206 a 0.46094049,0.46094049 46.874596 0 1 0.60968,0.65094 L 137.51568,240.34935 A 3.3494297,3.3494297 106.10819 0 0 137,242.13499 v 18.20971 a 1.8448583,1.8448583 28.803463 0 0 2.83319,1.55778 l 100.22657,-63.58872 a 3.0844954,3.0844954 118.66544 0 0 1.43202,-2.61939 l -0.0842,-17.48804 a 0.85452815,0.85452815 29.39414 0 0 -1.29381,-0.72885 l -68.61855,41.12541 a 0.4300045,0.4300045 45.319677 0 1 -0.5874,-0.59399 l 69.67334,-113.36307 a 6.2069914,6.2069914 105.78791 0 0 0.91891,-3.24998 l 2.8e-4,-19.803097 a 1.4424974,1.4424974 30.686958 0 0 -2.13361,-1.266184 L 140.93397,134.05373 A 7.5523121,7.5523121 120.68656 0 0 137,140.68284 Z"
         id="path30" /><path
         style="fill:#0768d1;fill-opacity:1;stroke:none;stroke-width:2.1"
         d="M 30.889871,73.826096 132.26281,12.933764 a 7.1730543,7.1730543 0.297774 0 1 7.45084,0.03872 l 99.39439,61.118644 a 1.6316958,1.6316958 91.427427 0 1 -0.0703,2.820726 L 138.50884,132.02497 a 5.280108,5.280108 179.71897 0 1 -5.03105,0.0247 L 30.971812,77.153501 a 1.9136426,1.9136426 88.589313 0 1 -0.08194,-3.327405 z"
         id="path31" /></g></g><g
     id="g17"
     transform="matrix(1.0897912,0,0,1.0881976,-17.511935,-20.281986)"
     style="display:none"><g
       id="g9"
       transform="matrix(0.54444921,0,0,0.54444921,62.102055,105.44476)"
       style="display:inline;fill:#000000;fill-opacity:1"><path
         style="fill:#000000;fill-opacity:1;stroke-width:2.1"
         d="m 134.85805,140.66119 0.0207,45.00898 a 1.5688312,1.5688312 150.64461 0 1 -2.38423,1.341 l -15.43832,-9.39238 a 2.311354,2.311354 60.657768 0 1 -1.11003,-1.97463 l 0,-20.48604 a 3.7085472,3.7085472 59.630381 0 0 -1.89586,-3.23535 L 49.226494,115.60371 a 0.75959449,0.75959449 149.46787 0 0 -1.130861,0.66698 l 0.388307,68.44994 a 4.319605,4.319605 60.235014 0 0 2.108033,3.68605 l 64.376217,38.3684 a 0.83412477,0.83412477 150.00393 0 0 1.26109,-0.72798 l -0.28632,-20.83905 a 1.0427074,1.0427074 150.15023 0 1 1.58101,-0.90728 l 15.46242,9.32299 a 3.8928557,3.8928557 60.543825 0 1 1.88278,3.33375 l 0,43.3432 a 1.8815816,1.8815816 151.03449 0 1 -2.88059,1.59447 L 30.332917,198.20338 A 4.973599,4.973599 61.034489 0 1 28,193.9887 V 82.0175 a 1.7126343,1.7126343 149.04629 0 1 2.51911,-1.510865 l 100.40128,53.592605 a 7.4421467,7.4421467 59.033138 0 1 3.93766,6.56195 z"
         id="path2" /><path
         style="fill:#000000;fill-opacity:1;stroke:none;stroke-width:2.1"
         d="m 137,140.68284 v 15.31056 a 1.2451648,1.2451648 30.766405 0 0 1.83868,1.09461 l 76.13604,-41.28206 a 0.46094049,0.46094049 46.874596 0 1 0.60968,0.65094 L 137.51568,240.34935 A 3.3494297,3.3494297 106.10819 0 0 137,242.13499 v 18.20971 a 1.8448583,1.8448583 28.803463 0 0 2.83319,1.55778 l 100.22657,-63.58872 a 3.0844954,3.0844954 118.66544 0 0 1.43202,-2.61939 l -0.0842,-17.48804 a 0.85452815,0.85452815 29.39414 0 0 -1.29381,-0.72885 l -68.61855,41.12541 a 0.4300045,0.4300045 45.319677 0 1 -0.5874,-0.59399 l 69.67334,-113.36307 a 6.2069914,6.2069914 105.78791 0 0 0.91891,-3.24998 l 2.8e-4,-19.803097 a 1.4424974,1.4424974 30.686958 0 0 -2.13361,-1.266184 L 140.93397,134.05373 A 7.5523121,7.5523121 120.68656 0 0 137,140.68284 Z"
         id="path3" /><path
         style="fill:#000000;fill-opacity:1;stroke:none;stroke-width:2.1"
         d="M 30.889871,73.826096 132.26281,12.933764 a 7.1730543,7.1730543 0.297774 0 1 7.45084,0.03872 l 99.39439,61.118644 a 1.6316958,1.6316958 91.427427 0 1 -0.0703,2.820726 L 138.50884,132.02497 a 5.280108,5.280108 179.71897 0 1 -5.03105,0.0247 L 30.971812,77.153501 a 1.9136426,1.9136426 88.589313 0 1 -0.08194,-3.327405 z"
         id="path4" /></g><text
       xml:space="preserve"
       style="font-style:normal;font-variant:normal;font-weight:normal;font-stretch:normal;font-size:77.6111px;font-family:Aldrich;-inkscape-font-specification:'Aldrich, Normal';font-variant-ligatures:normal;font-variant-caps:normal;font-variant-numeric:normal;font-variant-east-asian:normal;text-align:end;text-anchor:end;fill:#000000;fill-opacity:1;stroke:none;stroke-width:0.3;stroke-dasharray:none;stroke-opacity:1"
       x="267.28809"
       y="97.023277"
       id="text16"><tspan
         id="tspan16"
         style="font-style:normal;font-variant:normal;font-weight:normal;font-stretch:normal;font-size:77.6111px;font-family:Aldrich;-inkscape-font-specification:'Aldrich, Normal';font-variant-ligatures:normal;font-variant-caps:normal;font-variant-numeric:normal;font-variant-east-asian:normal;fill:#000000;fill-opacity:1;stroke:none;stroke-width:0.3"
         x="267.28809"
         y="97.023277">Cu<tspan
   style="fill:#000000;fill-opacity:1"
   id="tspan18">bi</tspan><tspan
   style="fill:#000000;fill-opacity:1"
   id="tspan19">Tz</tspan></tspan></text><rect
       style="display:none;fill:#bed907;fill-opacity:1;stroke:#bed907;stroke-width:0.2;stroke-dasharray:none;stroke-opacity:1"
       id="rect17"
       width="8.2387381"
       height="7.7898788"
       x="161.24181"
       y="31.912441"
       transform="translate(2.4961432e-5,9.1934669)" /></g></svg>
